/* XPM */
static char *_b309ebe41d24efab8f42433642436bekSh8ULprES92Yl94[] = {
/* columns rows colors chars-per-pixel */
"50 50 12 1 ",
"  c None",
". c black",
"X c #010101",
"o c #020202",
"O c gray1",
"+ c #040404",
"@ c gray2",
"# c #060606",
"$ c #070707",
"% c gray3",
"& c #090909",
"* c gray4",
/* pixels */
"                                                  ",
"              .+.++.++                            ",
"           ..+&...+&+...+                         ",
"         &...+++..++++..+++                       ",
"        ..+.+.        .+..++                      ",
"      &...+&            ...+&.                    ",
"     +.+..     +++...&    +.+.                    ",
"     ..++   ++.+..++++..   ..++                   ",
"    ...+   ..+&      ...+   ..++                  ",
"   ++..   +.+          +++   ++++                 ",
"   .++   .+              .+   ..+                 ",
"  ...&                        ...&                ",
"  +.+                          .+.                ",
"  ++.                          +..                ",
" .++                           &...               ",
" ++.                            +.&               ",
" ...                            .&.               ",
" +..                            +++               ",
" +++                            +..               ",
" .+&                            ...               ",
" ++.                            +.+               ",
" +..+                          ..++               ",
"  ...                          ..&                ",
"  +.+                          +++                ",
"  &+..                        &+..                ",
"   &..                        ++.                 ",
"   .+++                      +..+                 ",
"    .++.                    &...                  ",
"     +++.                  +++..                  ",
"      .+++                +...++                  ",
"       .&...            &+....++.                 ",
"        .++..++      +..+++.++.++..+.+            ",
"         .+++...+++..++...+   ..+++...+&          ",
"           &+...++....&..      ..&....+&.         ",
"              .&.++.+&         ++.+..+..+.        ",
"                              &+...+++...+&       ",
"                               +...++...+++.      ",
"                               .+.++.++++..+.     ",
"                                +&....++....&+    ",
"                                &.+...++..  ++.   ",
"                                 ..+++..++   .++  ",
"                                  .++....++   +&  ",
"                                   &++..+.++   +& ",
"                                    ..+++..++  .. ",
"                                     .&+....&  .. ",
"                                      +.+.++.  .+ ",
"                                       .+++...+&  ",
"                                        +++...+&  ",
"                                          ++.+    ",
"                                                  "
};
