/* XPM */
static char *_3e1118217ce49afb5c46a8d8ee4c2ebtRxu4Xqui8plEslW[] = {
/* columns rows colors chars-per-pixel */
"50 50 208 2 ",
"   c None",
".  c #0A0A0A",
"X  c #141515",
"o  c #1A1A1A",
"O  c #171718",
"+  c #201F1F",
"@  c #3D151B",
"#  c #1A1820",
"$  c #381B23",
"%  c #3E0322",
"&  c #1F2021",
"*  c #232323",
"=  c #2C2B2A",
"-  c #292729",
";  c #322629",
":  c #242A36",
">  c #252E3E",
",  c #282735",
"<  c #2B313C",
"1  c #2E3135",
"2  c #333232",
"3  c #333539",
"4  c #3C3B3B",
"5  c #393636",
"6  c #5C1817",
"7  c #760A19",
"8  c #6B121D",
"9  c #73111E",
"0  c #720512",
"q  c #6A2816",
"w  c #5C1B2D",
"e  c #521828",
"r  c #4E1438",
"t  c #780D26",
"y  c #69152A",
"u  c #781627",
"i  c #62042B",
"p  c #582937",
"a  c #433E3B",
"s  c #56353B",
"d  c #47273A",
"f  c #74313C",
"g  c #65312F",
"h  c #54421C",
"j  c #67681F",
"k  c #5B4838",
"l  c #382E41",
"z  c #273143",
"x  c #2A3444",
"c  c #2B364A",
"v  c #2C384D",
"b  c #2A3748",
"n  c #313445",
"m  c #343A44",
"M  c #333C4C",
"N  c #383C46",
"B  c #2E3C53",
"V  c #313E54",
"C  c #262F40",
"Z  c #521751",
"A  c #6D0C58",
"S  c #740B57",
"D  c #7F094C",
"F  c #473F4B",
"G  c #691667",
"H  c #683667",
"J  c #692861",
"K  c #3B414C",
"L  c #344055",
"P  c #3C4454",
"I  c #364259",
"U  c #3A4559",
"Y  c #3F4958",
"T  c #474547",
"R  c #4B4442",
"E  c #48494C",
"W  c #554D4A",
"Q  c #534B46",
"!  c #444C5B",
"~  c #434955",
"^  c #525253",
"/  c #5C5C5D",
"(  c #575455",
")  c #635A55",
"_  c #665B59",
"`  c #73515A",
"'  c #6B615D",
"]  c #7A6F43",
"[  c #485163",
"{  c #545963",
"}  c #575D67",
"|  c #464F60",
" . c #724F71",
".. c #7E567E",
"X. c #5A616D",
"o. c #626263",
"O. c #62656B",
"+. c #6B6C6C",
"@. c #6C6564",
"#. c #756A64",
"$. c #736E6B",
"%. c #7A6F6B",
"&. c #7C7068",
"*. c #676A70",
"=. c #706F72",
"-. c #747373",
";. c #7C7B7B",
":. c #797676",
">. c #840515",
",. c #990418",
"<. c #AC0014",
"1. c #A70619",
"2. c #B30014",
"3. c #BA0016",
"4. c #B4041B",
"5. c #BE011A",
"6. c #851B28",
"7. c #8F073D",
"8. c #A60327",
"9. c #B20E26",
"0. c #852633",
"q. c #8A222F",
"w. c #A92F3A",
"e. c #CD0019",
"r. c #C60218",
"t. c #D30019",
"y. c #DB001A",
"u. c #DC0017",
"i. c #E3001A",
"p. c #E9001C",
"a. c #CE162C",
"s. c #C02538",
"d. c #8B7517",
"f. c #81094A",
"g. c #8D3641",
"h. c #B53645",
"j. c #A93D46",
"k. c #815157",
"l. c #904B53",
"z. c #83696B",
"x. c #83756D",
"c. c #8B7C75",
"v. c #837D7D",
"b. c #887976",
"n. c #9F7A79",
"m. c #C55B68",
"M. c #A19F0F",
"N. c #A58C29",
"B. c #BDBB26",
"V. c #C0BF23",
"C. c #DADD0A",
"Z. c #A9A24B",
"A. c #8E817A",
"S. c #93857C",
"D. c #FFFF46",
"F. c #7C7E81",
"G. c #835783",
"H. c #847F80",
"J. c #836B83",
"K. c #828283",
"L. c #8B8B8C",
"P. c #8B8484",
"I. c #9C8D84",
"U. c #958C8C",
"Y. c #9A8788",
"T. c #8E8E90",
"R. c #8F9091",
"E. c #969595",
"W. c #9B9B9B",
"Q. c #9C8F8C",
"!. c #A48D8A",
"~. c #A39389",
"^. c #A9978C",
"/. c #B1908F",
"(. c #AB9B95",
"). c #B69B96",
"_. c #B4A295",
"`. c #B6A498",
"'. c #BAA599",
"]. c #BEAA9D",
"[. c #B8A497",
"{. c #AEA199",
"}. c #A4A4A4",
"|. c #ABABAC",
" X c #A7A9A9",
".X c #B3B3B3",
"XX c #BCBDBC",
"oX c #B6B9B9",
"OX c #BCAFA6",
"+X c #C29998",
"@X c #C6A69F",
"#X c #C9B69F",
"$X c #C3AEA1",
"%X c #CAB3A5",
"&X c #CCB7AB",
"*X c #CFB9AC",
"=X c #D2BAAC",
"-X c #BCC0BE",
";X c #DFC6B6",
":X c #E4CBBA",
">X c #E6C9BB",
",X c #EBD1BF",
"<X c #C2C2C2",
"1X c #C6C9C9",
"2X c #EDCFC0",
"3X c #EED3C2",
"4X c #F1D6C4",
"5X c #F5D9C7",
/* pixels */
"                                      #                                                             ",
"                              Z   $ 8 9 e #                                                         ",
"                            H G $ 6 4.3.<.@                                                         ",
"                            ; k V.M.6 ,.2.f +.^                                                     ",
"                        $ 9 >.] D.C.q 7 k.Q.L.( k O X                                               ",
"                      , u u.3.g N.j 5 -. X}.^ o # o O o X .                                         ",
"                      R s.3.3.2.8 4 ;..XE./ O o O O o o o O .                                       ",
"                      E j.t.3.6.b.W.E. Xo.* o o o o O O o o o                                       ",
"                        s 6.l.H.}..XK.2 o o O + 3 o = O o o o O                                     ",
"                          -..X XL.^ * o o X = ) a &.%XQ O o o O                                     ",
"                          :.L.o.2 2 = O = #.#X'.&X3X4X].= o o o                                     ",
"                              * o ' S.~.#X,X,X5X4X4X4X3X) O o o X                                   ",
"                              2 O I.5X5X5X,X,X,X,X#X' OX&.X o o .                                   ",
"                              3 o ^.5X,X5X,X5X,X~.2 a _.S.= o = _                                   ",
"                              4 * _.5X4X,X,X,XA.= . * k ].x.o A._.[.                                ",
"                                - S.%X[.=X:X,X&X' 2 * . x.;X&.~.I.&X                                ",
"                                2 T W o 2 '.4X4XOX3 O o b.=X,X@X^.^.                                ",
"                                + k ' & + Q [.%X:X#.R _ ~.%X3X,X&Xx.                                ",
"                                ;.k / ^ + = ~.@X4X3X>X>X>X,X4X'.                                    ",
"                                I.S.[./ Q #.:X4X>X=X$X~.OX$X~.$.                                    ",
"                                A.$.~.'.~.I.).!.c.z.b.P.U.L.:. XK.                                  ",
"                                  S.`.].S.%.H./.+X(.(.L.T. X X XR.                                  ",
"                                  +.$.-.c.:.b.@X+X(.U.}./ ~ K.L.W.                                  ",
"                                  / P.W.&X&Xb.c.A.;.;.F.b v P R.v.                                  ",
"                                  +.K.A.*X`.< o.T L.T.x v L v s >.                                  ",
"                                    O.} $.E > ^ 5 o.} < M L B t 3.                                  ",
"                                    [ I V : m ( T o.P m P I B y 2.                                  ",
"                                  *.U V x : P 3 3 | ~ K K I L w <.                                  ",
"                                  *.I B : Y K 1 m ~ ! [ P L L w <.                                  ",
"                                    M > < ! m 1 m v V I b b L d ,.                                  ",
"                                    q.u P | N n x z v B v x L n 0                                   ",
"                                    h.f b P m > b c B c x z B x 0                                   ",
"                                    k.F V V : > V L M x v x L m 7                                   ",
"                                    :.! Y m * 3 P U P c m < M m 9                                   ",
"                                    :.! x > o , Y B V B v , s S.n.                                  ",
"                                    ` V c v > x M z z x x y j.#X[.@.                                ",
"                                    ( V V v B B v v v b e r.w.B.Z.]                                 ",
"                                    ! V B v U B B V V x ,.e.t.d.N.h                                 ",
"                                    | V V U } B V V B w y.e.y.i % %                                 ",
"                                    ! V B { [ V V B l 4.p.t.i.f.A 7                                 ",
"                                    } V V X.V V V v t t.p.e.y.f.D <.                                ",
"                                    k.~ U [ B B B w r.t.p.t.e.S 7.r.                                ",
"                                    w.F ! I V B p r.t.t.p.y.4.A 8.t.                                ",
"                                  m.a.u F V V v ,.y.y.t.i.i.8.A 4.t.<.                              ",
"                              @.k.9.a.q.~ B B , f l.w.u q.1.t A r.8.1.                              ",
"                        o./ -.E.}.P.%.` I B z > O.1XoX X|.Y. .J n.U.!.U. XK.o.                      ",
"                    +.E.E.@.E..XW.;.}.} B M b v X.}.=.}.<XXXG.G.XX.X|.-XW.K..X/                     ",
"                    E. X}. X|.|. X.XT.Y P F.-.# o.E..X-X|.;.H J..XF.W.<X|..XXX:.                    ",
"                  -.}.W.}.|..X X|..XE m E.W.@.= E..X<X.XW.v.y z.|.|.XX.XK.;..X^                     ",
"                                  T +       1 *             7 g                                     "
};
