/* XPM */
static char *_7dc8e416ced4f85fe9f1782e95838ccDXNOirmALc5zKqfe[] = {
/* columns rows colors chars-per-pixel */
"50 50 111 2 ",
"   c None",
".  c #15170F",
"X  c #161710",
"o  c #1A1C13",
"O  c #1F2216",
"+  c #202217",
"@  c #232519",
"#  c #26291B",
"$  c #2C3722",
"%  c #2D3924",
"&  c #313423",
"*  c #333C26",
"=  c #363E28",
"-  c #393D29",
";  c #334329",
":  c #3E432D",
">  c #37492D",
",  c #394C2E",
"<  c #3B4F31",
"1  c #3D5131",
"2  c #41462E",
"3  c #42482F",
"4  c #434730",
"5  c #444A31",
"6  c #494E34",
"7  c #425532",
"8  c #4C5237",
"9  c #475832",
"0  c #4C5C33",
"q  c #445738",
"w  c #4E5438",
"e  c #465A39",
"r  c #4A5E3D",
"t  c #515F33",
"y  c #505539",
"u  c #555B3D",
"i  c #585F3F",
"p  c #4C603F",
"a  c #516033",
"s  c #536133",
"d  c #546133",
"f  c #546233",
"g  c #556233",
"h  c #556333",
"j  c #566333",
"k  c #576433",
"l  c #576434",
"z  c #596534",
"x  c #596634",
"c  c #5A6634",
"v  c #5B6634",
"b  c #5B6734",
"n  c #5C6734",
"m  c #5C6834",
"M  c #5D6834",
"N  c #5E6934",
"B  c #5F6934",
"V  c #5F6A34",
"C  c #606A34",
"Z  c #606B34",
"A  c #616B34",
"S  c #626C34",
"D  c #626C35",
"F  c #636C35",
"G  c #636D35",
"H  c #646E35",
"J  c #656E35",
"K  c #666F35",
"L  c #676F35",
"P  c #677035",
"I  c #687035",
"U  c #6A7135",
"Y  c #6B7235",
"T  c #6C7336",
"R  c #6D7436",
"E  c #6E7536",
"W  c #6F7536",
"Q  c #707636",
"!  c #717736",
"~  c #737936",
"^  c #747936",
"/  c #7A7D37",
"(  c #7B7E37",
")  c #7B7F37",
"_  c #7C7F37",
"`  c #595F40",
"'  c #596040",
"]  c #5D6443",
"[  c #5E6543",
"{  c #5E6544",
"}  c #5F6544",
"|  c #5F6644",
" . c #616846",
".. c #616946",
"X. c #626946",
"o. c #616946",
"O. c #686F4A",
"+. c #686F4A",
"@. c #68704A",
"#. c #6A714C",
"$. c #6A724C",
"%. c #6B734D",
"&. c #6A724C",
"*. c #7E8037",
"=. c #7E8137",
"-. c #7F8137",
";. c #808237",
":. c #818338",
">. c #838438",
",. c #848538",
"<. c #878738",
/* pixels */
"                                                                                                    ",
"                                                                                                    ",
"                                                                                                    ",
"                                                                                                    ",
"                                                                                                    ",
"                                                                                                    ",
"                                                                                                    ",
"                                                                                                    ",
"                                                                                                    ",
"                                                6 6                                                 ",
"                                              +  . .+                                               ",
"                                              X i i X                                               ",
"                                            - i +.+.` *                                             ",
"                                          @ X.%.&.%.%. .@                                           ",
"                                # - 5 6 5 u %.@.&.&.@.%.u 5 6 5 - @                                 ",
"                            & 6 w 3 - * * 3 i [ [ ] ] u 4 = * = 3 y 6 &                             ",
"                      # : w 8 * $ ; > , > ; $ $ $ $ % $ ; , , > ; $ ; 8 8 : #                       ",
"              O 4 6 w w : % % 1 1 1 1 1 1 1 1 1 1 1 1 1 1 1 1 1 1 1 > % $ : 8 8 6 5 +               ",
"            o 8 8 * $ % < r p q 1 1 1 1 1 1 1 1 1 1 1 1 1 1 1 1 1 1 1 1 , ; % % * 6 6 o             ",
"        o 5 w > $ q r ' e q 1 9 H W b 1 1 z W H 7 1 1 0 N 7 1 1 1 1 1 1 1 7 1 , > $ 3 w 4           ",
"        4 5 $ ; ' e 1 1 1 1 1 S H S <.z 0 W z *.^ 1 h P ,.9 1 1 < < 1 1 1 1 1 1 1 1 ; $ 3 3         ",
"      + w $ e ' 1 < 1 1 1 1 1 a 1 1 W U 9 9 < s >.7 1 0 *.7 1 9 9 9 7 < 1 1 1 1 1 1 1 1 $ 8 @       ",
"      & 6 % 1 1 1 1 1 1 1 1 1 1 1 1 Q k 1 1 < z Q 1 1 0 *.7 1 N P b P 1 1 1 1 1 1 1 1 1 % 5 &       ",
"      4 < > 1 1 1 1 1 1 1 1 1 1 1 s P 7 1 1 9 U 0 1 1 0 *.7 < b P k S 1 1 1 1 1 1 1 1 1 > > 2       ",
"    # ` $ < < 1 1 1 1 1 1 1 1 < 0 S 7 1 , 7 A 0 < 1 1 0 *.7 < z Y b Y 1 1 1 1 1 1 1 1 1 < $ u @     ",
"    @ u $ < 1 1 1 1 1 1 1 1 < 0 R s 0 9 7 K N 0 0 7 1 t >.9 1 N V 1 ~ 7 1 1 1 1 1 1 1 1 < $ u @     ",
"      4 : > 1 1 1 1 1 1 1 1 7 W *./ / ~ N *./ / _ s 7 S _ z 1 m P b k 1 1 1 1 1 1 1 1 1 > - 3       ",
"      & 6 ; r 1 1 1 1 1 1 1 1 7 9 7 7 7 7 7 7 1 7 1 7 7 7 7 1 1 7 7 < 1 1 1 1 1 1 1 1 1 * 6 &       ",
"      + w $ r r q < < 1 1 1 1 9 N 0 7 0 9 7 7 9 7 0 t 0 9 9 7 7 7 0 7 < 1 1 1 1 1 1 1 1 $ 8 +       ",
"        4 5 $ > p e 1 1 1 1 , 9 N b b b A b b M 9 9 N A z N b M k N 9 < 1 1 1 1 1 1 ; $ 5 4         ",
"          4 w : $ q r r 1 1 1 9 h t s s h h 0 0 9 9 0 0 s 0 t 0 a a 7 < 1 1 1 < > $ : w 3           ",
"            o 6 8 * % * ; , 1 1 1 , 1 1 1 1 1 1 1 1 1 1 1 1 1 1 1 1 1 1 < ; $ $ * 8 6 o             ",
"              + 4 6 8 8 3 $ % > 1 1 1 1 1 1 1 1 , , 7 1 1 1 1 1 7 1 > % $ 3 8 8 6 4 +               ",
"                      # : 8 8 * $ ; > , > ; $ $ % % $ $ ; > , > ; $ * 6 8 : @                       ",
"                            $ 6 y 3 - * = 3 u  .{ { { u 3 = * - 4 w 6 &                             ",
"                                @ - 3 6 5 u %.&.$.$.$.%.u 5 5 5 - @                                 ",
"                                          @  .%.$.$.%. .@                                           ",
"                                            * i +.@.i *                                             ",
"                                              . i i .                                               ",
"                                              @  . .+                                               ",
"                                                5 6                                                 ",
"                                                                                                    ",
"                                                                                                    ",
"                                                                                                    ",
"                                                                                                    ",
"                                                                                                    ",
"                                                                                                    ",
"                                                                                                    ",
"                                                                                                    ",
"                                                                                                    "
};
