/* XPM */
static char *_8ed8f516eea4673dc4e37406608539aHqK5aHlpI8jkViTL[] = {
/* columns rows colors chars-per-pixel */
"50 50 131 2 ",
"   c None",
".  c gray1",
"X  c gray9",
"o  c #1D1D1D",
"O  c #201C18",
"+  c #23201E",
"@  c #2A231F",
"#  c #1E2222",
"$  c #232323",
"%  c #2B2725",
"&  c #2B2927",
"*  c #262728",
"=  c #252A2B",
"-  c #2C2C2C",
";  c #322822",
":  c #34312E",
">  c #2B2E31",
",  c #2A3237",
"<  c #343434",
"1  c #3A3532",
"2  c #3E3834",
"3  c #333F3B",
"4  c #403934",
"5  c #453E38",
"6  c #4E443D",
"7  c #50463F",
"8  c #3B4347",
"9  c #31424E",
"0  c #324452",
"q  c #334857",
"w  c #3C5364",
"e  c #4B4540",
"r  c #514741",
"t  c #574D46",
"y  c #5A4D45",
"u  c #5D544B",
"i  c #66574D",
"p  c #655F57",
"a  c #735E52",
"s  c #66635C",
"d  c #6D665B",
"f  c #726054",
"g  c #74675B",
"h  c #78675B",
"j  c #7E6B5E",
"k  c #405A6D",
"l  c #435E71",
"z  c #486275",
"x  c #827262",
"c  c #897364",
"v  c #8A7867",
"b  c #827768",
"n  c #8F897A",
"m  c #9C8573",
"M  c #978C7B",
"N  c #9A8B79",
"B  c #A08573",
"V  c #AD8E79",
"C  c #B6957F",
"Z  c #4D6B82",
"A  c #738F83",
"S  c #7D8C81",
"D  c #7B9B8D",
"F  c #828080",
"G  c #8A8C85",
"H  c #86958A",
"J  c #9B9281",
"K  c #819C94",
"L  c #959291",
"P  c #999695",
"I  c #9E9D9C",
"U  c #A19684",
"Y  c #AD9581",
"T  c #A59986",
"R  c #B39984",
"E  c #B99982",
"W  c #A19F93",
"Q  c #80A897",
"!  c #9FA095",
"~  c #93A39E",
"^  c #9AA69A",
"/  c #ABA18D",
"(  c #BBA18B",
")  c #A4A194",
"_  c #BAAB95",
"`  c #BDB09A",
"'  c #9AB2A4",
"]  c #BAB4A4",
"[  c #BBB8A5",
"{  c #C6A78F",
"}  c #C5AF97",
"|  c #C6B097",
" . c #C8B097",
".. c #C7B59E",
"X. c #CCB199",
"o. c #D4B49B",
"O. c #C7BBA3",
"+. c #D2BDA4",
"@. c #CEC1A9",
"#. c #DFC1A6",
"$. c #D5C6AD",
"%. c #DFC7AD",
"&. c #DEC9AD",
"*. c #DCCCB2",
"=. c #DBD1B7",
"-. c #E3CBAF",
";. c #E2CEB2",
":. c #EAD2B6",
">. c #E5D6BA",
",. c #EFD5B8",
"<. c #E7D8BC",
"1. c #EADABE",
"2. c #F2D2B5",
"3. c #F6DABC",
"4. c #F9DBBD",
"5. c #EBDEC3",
"6. c #E7DCC8",
"7. c #FEDFC4",
"8. c #F1E2C5",
"9. c #FCE0C1",
"0. c #F5E6CA",
"q. c #FCE6C9",
"w. c #FDEBCD",
"e. c #ECE9DF",
"r. c #F0E7D4",
"t. c #FFEED0",
"y. c #FFF0D1",
"u. c #FFF0D2",
"i. c #FFF1D2",
"p. c #FFF2D3",
"a. c #E2E6E2",
/* pixels */
"                                                                                                    ",
"                                                                                                    ",
"                                                                                                    ",
"                                                                                                    ",
"                                        $ $ * $     X                                               ",
"                                    > < < < < < - $ $ o $ o                                         ",
"                                & < < < < 3 < < < < < * - - *                                       ",
"                              - < < < 2 < 2 < < < 2 < - < < < $                                     ",
"                            $ - < < < < < < < 2 3 < < : > < 2 < $                                   ",
"                          $ - < < < < < < < 3 < < < < - < < < < < : : -                             ",
"                          - < < > - 2 < 2 < < < < < < 1 < < < < < < < *                             ",
"                          , 2 < - - > 3 < < < < < > u E t < < > - < , &                             ",
"                          & < < < < : < < < - - 2 a o.7.o.5 & & , < < <                             ",
"                          # > < < > < < - $ 5 Y #.3.q.t.7.x - < 2 < < <                             ",
"                      o $ & < < - > > < < y x q.t.p.t.t.q.{ 2 < < < < <                             ",
"                      $ $ < < * * % - r R ,.;.t.t.t.t.t.t.3.B < < < < &                             ",
"                        % < $ 5 h N } :.w.t.u.t.t.w.5.@.@.<.2.c < - < -                             ",
"                      o % , : E -.+.] +.0.w.t.w._ M T O.>.5.0.( < - < <                             ",
"                        * * 4 -.t.t.5.O.>.t.t.t.>.<.t.p.p.p.t.M - < < -                             ",
"                        $ $ - N ` }  .;.0.t.t.t.8...( R m v j N e < : $                             ",
"                        $ : i g I P + O J u.t.t.6.s P b . . # _ j - $ o                             ",
"                          2 V +.a.~ # = ] u.t.t.0.6.a.Q > 3 S &.( d <                               ",
"                            C &.6.H A ^ 0.t.t.t.t.t.r.' D D [ 4.;.8._                               ",
"                            a } t.1.*.5.t.t.t.t.t.t.p.8.=.*.0.q.t.0.                                ",
"                              m 7.t.p.t.t.t.t.t.t.t.t.t.t.q.w.o.T /                                 ",
"                              7 X.q.t.t.t.t.5.5.5.t.t.p.u.w.X.y $ X                                 ",
"                                  Y *.8.t.t.5.;.5.t.w.8.;.b < X                                     ",
"                                        J n W ) W G s u                                             ",
"                                        o = l w w 0 # o                                             ",
"                                      o $ # w Z w > & $ o                                           ",
"                                      $ $ $ 9 z 8 - - - $                                           ",
"                                      $ $ * 9 9 < > - & *                                           ",
"                                      $ $ , l 0 > - > $ *                                           ",
"                                      $ o > q , < - - $ &                                           ",
"                                      - o & # * < - $ - &                                           ",
"                                      & o - $ - : - $ * o                                           ",
"                                      $ % O o o $ ; % + o                                           ",
"                                      o O < $ < < - O - *                                           ",
"                                      o = > o * : < - - >                                           ",
"                                      + & < o X + < > - < &                                         ",
"                                    o $ $ < $ $ O - < - < -                                         ",
"                                    $ $ & & + $ $ $ > & < -                                         ",
"                                    $ $ * - # $ $ # - $ < & o                                       ",
"                                      o * - X     o * # - $ o                                       ",
"                                      $ $ $         o o                                             ",
"                                      $ $ X         $ $                                             ",
"                                                                                                    ",
"                                                                                                    ",
"                                                                                                    ",
"                                                                                                    "
};
