/* XPM */
static char *_3ec36434a574c2091d6a48512a8b294i4OpW3Pv1w5t1Mee[] = {
/* columns rows colors chars-per-pixel */
"50 50 142 2 ",
"   c #DDBD8E",
".  c #DFBF91",
"X  c #E2BE8D",
"o  c #E2BF91",
"O  c #DFC18F",
"+  c #DEC293",
"@  c #E3C08F",
"#  c #E4C494",
"$  c #E9C595",
"%  c #E6C897",
"&  c #E8C897",
"*  c #E6C798",
"=  c #EAC699",
"-  c #E6CA9B",
";  c #E9CE9F",
":  c #EACE9E",
">  c #EACE9F",
",  c #E9CD9D",
"<  c #ECCC9D",
"1  c #EFCD9D",
"2  c #ECCD9E",
"3  c #EDCD9E",
"4  c #ECCD9F",
"5  c #EDCE9F",
"6  c #EACB9B",
"7  c #F2CA99",
"8  c #F2CE9E",
"9  c #F4CE9F",
"0  c #F0CE9E",
"q  c #E7D09E",
"w  c #E5D09F",
"e  c #E8D19F",
"r  c #EED09E",
"t  c #ECD09F",
"y  c #E6CEA0",
"u  c #E6CFA2",
"i  c #E9CCA0",
"p  c #EACDA1",
"a  c #EACFA0",
"s  c #EBCFA0",
"d  c #EBCEA2",
"f  c #EACFA2",
"g  c #EECFA0",
"h  c #EFCFA0",
"j  c #ECCFA3",
"k  c #ECCFA1",
"l  c #F0CEA0",
"z  c #E6D2A1",
"x  c #E8D0A0",
"c  c #EBD1A0",
"v  c #EBD0A1",
"b  c #E9D3A2",
"n  c #E8D2A3",
"m  c #EAD2A2",
"M  c #EBD3A3",
"N  c #ECD0A0",
"B  c #ECD0A1",
"V  c #EDD1A1",
"C  c #EFD0A1",
"Z  c #ECD2A1",
"A  c #ECD1A2",
"S  c #EDD1A2",
"D  c #EDD3A2",
"F  c #EDD2A3",
"G  c #EED2A2",
"H  c #EED2A3",
"J  c #EFD3A3",
"K  c #ECD5A3",
"L  c #EED4A3",
"P  c #E9D3A4",
"I  c #EBD3A5",
"U  c #ECD1A4",
"Y  c #EED3A4",
"T  c #E9D4A5",
"R  c #EBD5A4",
"E  c #EAD4A5",
"W  c #EBD7A5",
"Q  c #E9D4A7",
"!  c #EBD5A6",
"~  c #ECD4A4",
"^  c #EDD5A5",
"/  c #EFD5A4",
"(  c #EFD4A5",
")  c #EDD5A7",
"_  c #EED6A6",
"`  c #ECD3A3",
"'  c #EDD9A7",
"]  c #EED8A7",
"[  c #E7D6AA",
"{  c #EDD7A8",
"}  c #EED6A8",
"|  c #ECD7A9",
" . c #E7D9AC",
".. c #EDD8A9",
"X. c #EFD9A8",
"o. c #EED8A9",
"O. c #EED9AA",
"+. c #EDDAAB",
"@. c #F3D1A1",
"#. c #F0D2A0",
"$. c #F0D1A2",
"%. c #F1D1A2",
"&. c #F1D0A3",
"*. c #F3D1A3",
"=. c #F1D2A3",
"-. c #F0D4A5",
";. c #F3D4A5",
":. c #F1D5A6",
">. c #F1D6A7",
",. c #F2D6A6",
"<. c #F5D5A6",
"1. c #F1D4A5",
"2. c #F2D8A7",
"3. c #F4D8A6",
"4. c #F6D7A8",
"5. c #F2D7A9",
"6. c #F0D8A8",
"7. c #F0DAAB",
"8. c #F2DAAA",
"9. c #F4D8A8",
"0. c #F4D9AA",
"q. c #F3DBAD",
"w. c #F3DDAE",
"e. c #F3DEAF",
"r. c #F3DBAC",
"t. c #F8DDAE",
"y. c #EDDDB1",
"u. c #F5DFB0",
"i. c #F3DEB1",
"p. c #FADFB0",
"a. c #EEE0AF",
"s. c #F4E0AE",
"d. c #F3E1AF",
"f. c #EEE0B4",
"g. c #F4E2B4",
"h. c #FAE4B5",
"j. c #F5E9B7",
"k. c #F5E5B9",
"l. c #F8E6BA",
"z. c #F5E9BB",
"x. c #FBEABD",
"c. c #FBECC0",
/* pixels */
"# X o $ $ $ o *.l 2 2 2 $ # t , , F < & ;.* & j * $ @ # 6 $ # = & * # @ $ X @ @ $ $ $ $ $ $ 4 & # $ ",
"$ $ $ $ $ 7 7 7 <.F <., $.F * # ; ; * & j , , & * $ 6 # X $ * $ j *   * # # $ X @ # @ @ o = & = X $ ",
"X $ 7 7 l p o l 2., d ,.q.X.; F } y * * , * * & # # # $ # $ # & Y - * & $ $ $ @ X $ $ $ * 6 - # $ $ ",
"$ X $ 7 p - * 4 v ; v K 6.X.T v y P d * * * & & # # 6 $ $ # # & - - # * # * $ # X $ 7 $ 7 p p o $ $ ",
"$ $ # p p d , F ~ ; * d u.X.- & - p j j < * & & & $ & & & < * < d # * % & 6 & # $ X $ 0 & * j < $ $ ",
"o # * j 5.Y , ~ 6.q K Y } K *   . * y - # X # % $ & & $ & # + * < * # * % & = & X $ $ @.F * , * 7 7 ",
"$ X & < ,.t F , v ] 6.* * % # * * # y , # # * # # # # & * o # - * # % e % & # # @ $ < = , * * * 7 < ",
"X $ # * * * 2 v F R ] d * # * % # + d j # * # # * % * # * # = 6 * & & 6 % % % # $ t $.< * 2 & % l 7 ",
"$ $ $ @ # # # #.6 + t ,.v # # & # # * 6 # * t % # # < t 2 & $.& & & % % @ % , 2 & , * # % - , & 4 = ",
"X X @ $ @ # @ # % # * * # # % & # # # * # # , * # # & 6 % & = < % # @ % # & * & % - , % % # < & = 4 ",
"@ @ $ * $ # # # # % * , * , # # % e K # # @ # @ # & & & # # * * % % # # & & * * % + R q v v v F & 2 ",
"6 6 $ $ # < & * % * , ; , 6 % 6 t 6 ,.% % # @ @ # & # # % @ * # % % # * , 2 F # K R + ; - z ~ q * < ",
"& # $ & , $.& , , * F X.Y # * 6 % # - e 6 @ # % 6 & # # % & & 6 6 % * * * , * * v ; + ] R K e.R P +.",
"@ # & $ & 2 , % * * , v | T e * # # % 6 6 # % # # & % # # # * * 6 % 6 & j & + * K K - R s. .T T } e.",
"$ & & @ $ * # & % * - e ~ ] ~ , % # * * 6 % @ # @ % # % * & * * 6 % @ % # * , # + % % q ; - P Q P Y ",
"# @ & # * * # # * * , * d R , , % % * @ % # O , & # # % * * e * * @ # # # # 6 # O + % - P ~ Q  .6.e ",
"# $ - * * - * * < d ; % P ~ ; % 6 % ; ; # # % } } - % # % * % + * * + # * # * ; # , d - +.i.y.y.g.W ",
"& j 6 - P Y = < < j i.} } ~ y d 6 - v * * , - X.g.v 6 1.~ X.| | p * j d , + y p.# % ] T  .k.f. .+.' ",
"= & * p -.< & & - d q.d } v % - * - * * < < * , ,.% * t - v X.i.>.- * % < - d v % - g.f.y. . .T - e ",
"$ & * o * + # & <.-.~ } i.v # # . # * & - # # * F $.% * * d | i.y +   # Y ~ - ; % ; i.h.f.f.+.v q F ",
"# @ $ $ # # # # * $., ,.6.d % # * # # # = * & & t & % % e t.R X.- # % % t - - - % + P  .| y.|  .g.X.",
"@ $ * * & * @ # & j - ,.9.F F * # # # o * >.F # # # @ % * ; ; 6.F # % # # # # # * y Q T +.X.|  .e.+.",
"$ # * & * * j & d >.t.Y F j F 2 # # # o * 2 $.* # # * * * # # * & % % # # # # * < ; } X.z R ' z +.+.",
"# # * l ,.F & , 2 F Y , & * & & # # # # @   * * # @ @ * + # < * * 6 & @ @ # # # * y e.] R v T +.y.f.",
"# # # < 1.t 2 & & & t ~ & & , * # * $ $ * $ # O O % * , * # & # F e # @ @ # # # + - ] z v y X.y.y.+.",
"@ # # & < t F , < # , * # * * * @ # & # % & # # % % , , # # & % , v # $ # * # * - q v R ; y g.+.a.g.",
"# & $ % * * & = e , , e * * F # @ % $ # # # * # & # # * # % t % * 6 &   # & & , R e w T q z +.y.z.g.",
"# & % # # * * * ,.6.,.~ ~ F F & # r # # $ # < * % * * * * * 2 % t , * X # % , - + q X.X.] ; T g.z. .",
"< -.$ # # * * * t 6 - 6 * # # * # % # % # < & @ # K , # d ,.6 * q.d # # # # , ] w q a.g.R v 6.q.>.X.",
"< 2 # $ 6 # , * 6 < 6 $.*   # # % % # < = # # # # - < & - K , e +.*   # - + z 8.a.' ] ] ; v 6., >.P ",
"# X o # * # * & & # & * X # # # # & % & & # # # # % $ * * # 6 # y - # * , e T  .T - v % - - v d } ; ",
"o X # o * # * * & # # O # # j - # 2 2 * # X @ # # # # * e % 6 # u % # , , ] x.X.- z - # + y Y y q T ",
"X # # # # o # * * # % ~ 6.d v v . * p * . o # X # # X $ , * # < Y + # * * T 6.z - - q ; + z +.P ' W ",
"$ X # o # X # = & 6 v t.>.* j K . . * o o o     # # # * % # + + P * * - d ,.p., + * - z T T u y W W ",
"# * = = X # & ,.,.q.>.d F , * * # # * X # * * X @ % # & * # # y u.i.p j * * , + * z +.g.z ' * - w - ",
"# * & & # # j F % v Y ; * & # & = & # # < j & # # & < & * . * q.k.| d * + # # % + T g.x.f.+.z T d.+ ",
"# $ $ o X # & < * * * * # * # $ % # # # o X # $ & # * % @ @ # # 5.Q , # # # # # O + a.j.g.z W w W % ",
"# @ $ X # $ & = * , ; # # * # * t # #   X # X o # # # # @ # # # Y Y $ * # # @ O # w ' a.' w W w w % ",
"# # # o # X * # # % , # # # * - 3.t # * # # X # & * t e - r @ @ 6 * o #   # # - w w ' w w w w + + - ",
"# = $ # $ = # # # - F e # % K 1.% - % % % # X @ & * * * % % # % o   # o # & v - w % % w % O q + % q ",
"# < 2 & & $ $ # * 9.' X.} z ~ R + # % * e % # # $ @ # # # X # * # # # o $ # 6 = # @ @ $ 6 @ % % e w ",
"* = l j & & = 2 # * - e.g.X.T v - # # + R R % * # # # # # # @ * * # # o X X $ @ @ @ @ @ & # & % 8.w ",
"* t ~ K % $ & 2 - - ] h.j.z.X.% ; % - d R 8.K * # # * * * # & & * # # o # @ X X @ @ $ @ & & % # T [ ",
"& , ; ,.& % j F ,.8.g.j.j.g.i.z % 6.d y T d.q % # & j F 2 2 F j = * X # # # X X @ @ @ @ @ @ % % w [ ",
"2 < 3.F p < = ~ t.6.z X.i.+.+.X.i.k.i.Q q ] ~ ; 6 6 <.9.-.= F , F , * < 2 < @ X   X X X @ & q t ' w ",
"& & , j p - - d q.~ ; R ~ e.+.g.l.y.k.k.+.s.l.z % t , ,.Y - Y i.g.,.d * ,.r @ @ X $ # * $ # q ' ' R ",
"* < t P | P X.v ,.,., , R ~ q.h.c.y.i.x.f.x.x.+.i.} v e.} X.} i.g.l.v & t = X $ $ $ * < - * z  .e.w ",
"# & F y i.} X.v 6., F , t v P X.y.z.i.c.j.l.y.k.x.g.u.g.l.y.Q u y.l.Y & & $ # 7 @ @ # < - * X.s.~ e ",
"$ = Y } g.T +.+.q.e ,.Y F F 6.} g.l.i.z.k.k.c.c.c.f. .y.c.j.Q +.q.>.X $ $ @ X 0 @ X $ # # * - K , * ",
"X $ , 2.l.g.f.h.x.X.9.F 0 F v v T e.k.x.k.c.c.f.c.y. .k.k.k.l.u.9.l # @ X X @ $ $ @ @ # # # # % % * "
};
